<?xml version="1.0" encoding="UTF-8"?>
<!DOCTYPE svg PUBLIC "-//W3C//DTD SVG 1.1//EN" "http://www.w3.org/Graphics/SVG/1.1/DTD/svg11.dtd">
<!-- Creator: CorelDRAW 2018 (64-Bit) -->
<svg xmlns="http://www.w3.org/2000/svg" xml:space="preserve" width="168px" height="168px" version="1.1" style="shape-rendering:geometricPrecision; text-rendering:geometricPrecision; image-rendering:optimizeQuality; fill-rule:evenodd; clip-rule:evenodd"
viewBox="0 0 16800 16800"
 xmlns:xlink="http://www.w3.org/1999/xlink">
 <defs>
  <style type="text/css">
   <![CDATA[
    .fil0 {fill:#807770}
   ]]>
  </style>
 </defs>
 <g id="Layer_x0020_1">
  <metadata id="CorelCorpID_0Corel-Layer"/>
  <path class="fil0" d="M8401.6 4554.2c-2128.7,0 -3845.7,1717.1 -3845.7,3845.8 0,2128.7 1717,3845.8 3845.7,3845.8 2128.8,0 3845.9,-1717.1 3845.9,-3845.8 0,-2128.7 -1717.1,-3845.8 -3845.9,-3845.8zm0 6346.1c-1375.6,0 -2500.2,-1121.3 -2500.2,-2500.3 0,-1379 1121.3,-2500.3 2500.2,-2500.3 1379.1,0 2500.4,1121.3 2500.4,2500.3 0,1379 -1124.6,2500.3 -2500.4,2500.3zm4900.2 -6503.4c0,498.7 -401.7,897 -897,897 -498.7,0 -897,-401.6 -897,-897 0,-495.4 401.7,-897 897,-897 495.3,0 897,401.6 897,897zm2547.2 910.4c-56.9,-1201.7 -331.3,-2266 -1211.7,-3143 -876.9,-876.9 -1941.3,-1151.4 -3142.9,-1211.6 -1238.5,-70.2 -4950.4,-70.2 -6188.8,0 -1198.2,56.9 -2262.6,331.4 -3142.9,1208.3 -880.3,876.9 -1151.4,1941.3 -1211.6,3142.9 -70.4,1238.4 -70.4,4950.4 0,6188.8 56.8,1201.7 331.3,2266 1211.6,3142.9 880.3,876.9 1941.3,1151.4 3142.9,1211.6 1238.4,70.3 4950.4,70.3 6188.8,0 1201.6,-56.9 2266,-331.3 3142.9,-1211.6 877,-877 1151.4,-1941.3 1211.7,-3142.9 70.3,-1238.4 70.3,-4947 0,-6185.4zm-1599.9 7514.2c-261.1,656.1 -766.5,1161.4 -1425.9,1425.9 -987.4,391.6 -3330.4,301.2 -4421.6,301.2 -1091.1,0 -3437.4,87 -4421.4,-301.2 -656.1,-261.1 -1161.5,-766.5 -1426,-1425.9 -391.5,-987.4 -301.2,-3330.3 -301.2,-4421.5 0,-1091.2 -87,-3437.5 301.2,-4421.5 261.1,-656.1 766.5,-1161.4 1426,-1425.9 987.3,-391.6 3330.3,-301.2 4421.4,-301.2 1091.2,0 3437.5,-87 4421.6,301.2 656,261.1 1161.4,766.5 1425.9,1425.9 391.6,987.4 301.2,3330.3 301.2,4421.5 0,1091.2 90.4,3437.5 -301.2,4421.5z"/>
 </g>
</svg>
