<?xml version="1.0" encoding="UTF-8"?>
<!DOCTYPE svg PUBLIC "-//W3C//DTD SVG 1.1//EN" "http://www.w3.org/Graphics/SVG/1.1/DTD/svg11.dtd">
<!-- Creator: CorelDRAW 2018 (64-Bit) -->
<svg xmlns="http://www.w3.org/2000/svg" xml:space="preserve" width="100px" height="100px" version="1.1" style="shape-rendering:geometricPrecision; text-rendering:geometricPrecision; image-rendering:optimizeQuality; fill-rule:evenodd; clip-rule:evenodd"
viewBox="0 0 10000 10000"
 xmlns:xlink="http://www.w3.org/1999/xlink"
 aria-hidden="true"
 focusable="false"
 data-prefix="fas"
 data-icon="search"
 role="img">
 <defs>
  <style type="text/css">
   <![CDATA[
    .fil0 {fill:#6A6661}
   ]]>
  </style>
 </defs>
 <g id="Layer_x0020_1">
  <metadata id="CorelCorpID_0Corel-Layer"/>
  <path class="fil0" d="M9863.2 8645.6l-1947.1 -1947c-87.9,-87.9 -207,-136.7 -332,-136.7l-318.3 0c539,-689.4 859.3,-1556.5 859.3,-2499.8 0,-2243.9 -1818.2,-4062.1 -4062.1,-4062.1 -2244,0 -4062.1,1818.2 -4062.1,4062.1 0,2243.9 1818.1,4062.1 4062.1,4062.1 943.2,0 1810.3,-320.3 2499.7,-859.3l0 318.3c0,125 48.8,244.2 136.7,332l1947.1 1947.1c183.6,183.6 480.4,183.6 662,0l552.7 -552.7c183.6,-183.5 183.6,-480.4 2,-664zm-5800.2 -2083.7c-1380.8,0 -2499.8,-1117.1 -2499.8,-2499.8 0,-1380.7 1117.1,-2499.8 2499.8,-2499.8 1380.7,0 2499.7,1117.1 2499.7,2499.8 0,1380.7 -1117.1,2499.8 -2499.7,2499.8z"/>
 </g>
</svg>
