<?xml version="1.0" encoding="UTF-8"?>
<!DOCTYPE svg PUBLIC "-//W3C//DTD SVG 1.1//EN" "http://www.w3.org/Graphics/SVG/1.1/DTD/svg11.dtd">
<!-- Creator: CorelDRAW 2018 (64-Bit) -->
<svg xmlns="http://www.w3.org/2000/svg" xml:space="preserve" width="1000px" height="100px" version="1.1" style="shape-rendering:geometricPrecision; text-rendering:geometricPrecision; image-rendering:optimizeQuality; fill-rule:evenodd; clip-rule:evenodd"
viewBox="0 0 100000 10000"
 xmlns:xlink="http://www.w3.org/1999/xlink">
 <defs>
  <style type="text/css">
   <![CDATA[
    .fil0 {fill:#FEFEFE}
   ]]>
  </style>
 </defs>
 <g id="Layer_x0020_1">
  <metadata id="CorelCorpID_0Corel-Layer"/>
  <path class="fil0" d="M0 -0.1l0 7640.9c942.9,4.2 2494.3,-1021.1 3102.5,-1118.5 613.3,-98.3 4039,658.5 4673.6,390.9 467.1,-197 725,-626.7 1507,-628.7 1111.6,-2.8 891.4,-191.7 1651.2,-430.5 789.7,-248.2 857.4,619.7 1156.5,837.6 167.3,121.8 1259.7,340.8 1646.6,432 1276.1,300.4 2047.8,-441.9 2454.1,-455.8 213.3,-7.2 892.7,360.1 1145.3,427.9 1537.3,413.1 2340.2,660.7 4102.8,438.4 372.7,-47.1 583,-69.8 1000.8,-69.8 347.9,650 577.6,805.7 1373.7,1054.9 282,88.2 753.7,83.6 1126.7,63.7l1192.5 -56.7c380.2,-4.2 758.1,-155.1 1067.9,-123.8 336.1,34 131.4,86.5 401,196.9 176.4,72.2 324.5,33.6 531.8,121.5 368.2,156.1 278.4,539.4 1979.9,386.5 795.3,-71.4 1152.7,-294.4 1447.6,-334.4 950.8,-129 1983.9,-179.9 2866.1,-36.3 1368,222.8 3301.5,22.6 4679.5,22.6 194.6,720.5 2754.1,239.2 3358.3,138 351.4,-58.8 490.8,61.2 781.6,123.9 381.6,82.3 655.3,-8.5 919.7,-9.4 344.5,-1 2068.2,283.4 2365.9,527.5 202.7,166.1 288.1,365.2 609.6,397.9 578.5,58.8 1357,-33.5 1965.2,-0.9 1394,74.4 2286.6,113.4 3754.9,-53.6l1186.3 -239.6c377,-112.2 465.1,-278.6 1137.4,-346.8 469.8,-47.6 522.1,73.3 888.6,-121.9 732.1,-389.8 494.8,-186.5 1674.9,-291.5 342.3,-30.5 479.5,129.7 768.4,164.9 517.1,63.1 2101.4,-284.1 2533.9,-425.7 500.5,-163.7 863.2,-432.1 1402.8,-555.2 556.8,-126.9 1109.8,-195.4 1657.7,-303.1 577.6,-113.4 1148.4,-187.7 1423.4,-593.7 199.8,45.9 475.1,52.2 646.1,126.3 315.6,136.8 131.1,172.5 661,170.5 1408.1,-5.4 2350.7,-184.5 3897.3,148.5 279,60.1 357.9,131.1 594.2,236.5 342.9,153 870,456.2 1159.9,504.9 229.7,38.5 159.7,9.4 316.1,10.5 928,6.2 2.7,103.1 1023.2,-114 537.4,-114.3 1020.6,69.7 1525.5,-21.2 689.9,-124.2 1001.3,-371.1 2006.6,-495.3 405.7,-50.1 222.2,84.7 669.1,86.2 370.7,1.3 1200.5,-265.5 1385.6,-287.7 187.5,-22.4 432.4,86.2 673.3,131.5 467.8,88 967.9,80.5 1345.6,-133.1 278.1,-157.5 186.3,-254.3 581.9,-252.8 502.6,1.8 906.7,277 1468,43.2 575.6,-239.6 2226.5,-493.2 2808.1,-141.9 424.5,256.4 973.1,-1.9 1440.9,-12.1 289.7,90.2 -43,639.5 1406.2,154.4 1287.3,-431 509.3,-30.4 1555.7,-286.8 300.3,-73.6 536.1,-47.9 789.8,71.8 303.6,143.2 650.2,601.2 1481.4,530.2 531.6,-45.5 331.2,-63.7 861.5,37.2 629,119.6 1717.7,-62.3 2293.3,-335.2 471.7,-223.7 63.4,-158.1 641.3,-307.6 1009.8,-261.2 544.9,-375.8 1665.2,155.7 392.2,186 1132.7,451.1 1567.5,451.1l0 -7640.9 -100000 0z"/>
 </g>
</svg>
