<?xml version="1.0" encoding="UTF-8"?>
<!DOCTYPE svg PUBLIC "-//W3C//DTD SVG 1.1//EN" "http://www.w3.org/Graphics/SVG/1.1/DTD/svg11.dtd">
<!-- Creator: CorelDRAW 2018 (64-Bit) -->
<svg xmlns="http://www.w3.org/2000/svg" xml:space="preserve" width="168px" height="168px" version="1.1" style="shape-rendering:geometricPrecision; text-rendering:geometricPrecision; image-rendering:optimizeQuality; fill-rule:evenodd; clip-rule:evenodd"
viewBox="0 0 16800 16800"
 xmlns:xlink="http://www.w3.org/1999/xlink">
 <defs>
  <style type="text/css">
   <![CDATA[
    .fil0 {fill:#807770}
   ]]>
  </style>
 </defs>
 <g id="Layer_x0020_1">
  <metadata id="CorelCorpID_0Corel-Layer"/>
  <path class="fil0" d="M13712.3 6032.6c8.3,114.8 8.3,229.7 8.3,344.5 0,3502.7 -2666,7538.7 -7538.7,7538.7 -1501.2,0 -2895.7,-434.7 -4068.8,-1189.4 213.3,24.6 418.4,32.8 639.9,32.8 1238.7,0 2378.9,-418.4 3289.5,-1132.1 -1164.9,-24.6 -2141.1,-787.5 -2477.4,-1837.5 164.1,24.6 328.1,41 500.4,41 237.9,0 475.7,-32.8 697.2,-90.2 -1214,-246.1 -2124.6,-1312.5 -2124.6,-2600.4l0 -32.8c352.7,196.8 762.9,319.9 1197.6,336.4 -713.7,-475.8 -1181.1,-1287.9 -1181.1,-2206.7 0,-492.2 131.2,-943.4 360.9,-1337.2 1304.3,1607.9 3264.8,2657.9 5463.3,2772.7 -41,-196.9 -65.6,-401.9 -65.6,-607 0,-1460.2 1181.2,-2649.6 2649.6,-2649.6 762.8,0 1451.9,319.9 1935.9,836.7 598.8,-114.8 1173,-336.4 1681.7,-639.9 -197,615.3 -615.3,1132.1 -1164.9,1460.2 533.2,-57.4 1050,-205.1 1525.8,-410.1 -360.9,524.9 -812.1,992.5 -1328.9,1369.9l0 0 -0.1 0z"/>
 </g>
</svg>
