<?xml version="1.0" encoding="UTF-8"?>
<!DOCTYPE svg PUBLIC "-//W3C//DTD SVG 1.1//EN" "http://www.w3.org/Graphics/SVG/1.1/DTD/svg11.dtd">
<!-- Creator: CorelDRAW 2018 (64-Bit) -->
<svg xmlns="http://www.w3.org/2000/svg" xml:space="preserve" width="168px" height="168px" version="1.1" style="shape-rendering:geometricPrecision; text-rendering:geometricPrecision; image-rendering:optimizeQuality; fill-rule:evenodd; clip-rule:evenodd"
viewBox="0 0 16800 16800"
 xmlns:xlink="http://www.w3.org/1999/xlink">
 <defs>
  <style type="text/css">
   <![CDATA[
    .fil0 {fill:#807770}
   ]]>
  </style>
 </defs>
 <g id="Layer_x0020_1">
  <metadata id="CorelCorpID_0Corel-Layer"/>
  <path class="fil0" d="M14583.8 1619.5c-417.7,-384.7 -2108.1,-1611.4 -5877,-1627.8 0,0 -4443.2,-266.4 -6607.2,1719.9 -1203.7,1203.7 -1627.9,2969.8 -1674,5156.8 -46,2187.1 -101.9,6284.8 3847.9,7396.5l3.3 0 -3.3 1696.9c0,0 -26.3,687.4 427.5,825.5 545.9,171 868.3,-351.9 1391.2,-914.3 286.1,-309.1 680.7,-763 980,-1108.2 2703.4,226.8 4778.6,-292.8 5015.3,-368.4 546,-177.6 3634.2,-572.2 4134,-4670 519.6,-4229.4 -250,-6899.9 -1637.7,-8106.9l0 0 0 0zm457.1 7797.7c-424.3,3420.3 -2927,3637.4 -3387.5,3785.3 -197.3,62.5 -2022.6,516.4 -4314.8,368.4 0,0 -1710.1,2062 -2242.9,2598.1 -174.3,174.3 -365,157.8 -361.8,-187.5 0,-226.9 13.2,-2818.4 13.2,-2818.4 -3.3,0 -3.3,0 0,0 -3347.9,-927.5 -3150.6,-4416.8 -3114.5,-6242.1 36.2,-1825.2 381.5,-3321.6 1401,-4327.9 1831.9,-1660.8 5604.1,-1414.3 5604.1,-1414.3 3186.7,13.3 4712.8,973.5 5068,1295.8 1174,1006.4 1772.6,3413.8 1335.2,6942.6zm-4571.4 -2657.3c13.2,282.8 -411.1,302.5 -424.2,19.7 -36.2,-723.5 -375,-1075.4 -1072.2,-1114.8 -282.8,-16.5 -256.5,-440.7 23,-424.3 917.5,49.4 1427.3,575.5 1473.4,1519.4l0 0zm667.7 371.6c32.8,-1394.4 -838.7,-2486.3 -2493,-2608 -279.5,-19.7 -249.9,-444 29.7,-424.2 1907.4,138.1 2923.7,1450.3 2887.5,3042.1 -3.3,282.8 -430.8,269.6 -424.2,-9.9l0 0zm1545.6 440.7c3.3,282.8 -424.2,286.2 -424.2,3.3 -19.8,-2680.3 -1805.5,-4140.5 -3972.8,-4157 -279.6,-3.3 -279.6,-424.2 0,-424.2 2423.8,16.4 4374,1690.3 4397,4577.9l0 0zm-371.6 3226.3l0 6.5c-355.2,624.9 -1019.5,1315.5 -1703.5,1095.2l-6.6 -9.9c-693.9,-194 -2328.5,-1035.9 -3361.2,-1858.1 -532.7,-421 -1019.4,-917.6 -1394.3,-1394.5 -338.8,-424.2 -680.8,-927.4 -1013,-1532.5 -700.5,-1266.2 -855.1,-1831.8 -855.1,-1831.8 -220.3,-684.1 467.1,-1348.5 1095.2,-1703.6l6.6 0c302.5,-157.8 592,-105.3 786,128.3 0,0 407.7,486.6 582.1,726.8 164.4,223.6 384.8,582.1 499.9,782.7 200.6,358.4 75.6,723.5 -121.7,874.8l-394.7 315.7c-200.6,161.1 -174.3,460.5 -174.3,460.5 0,0 585.4,2213.3 2772.5,2772.3 0,0 299.2,26.4 460.4,-174.3l315.7 -394.6c151.2,-197.3 516.4,-322.3 874.8,-121.7 483.5,273 1098.4,697.3 1506.3,1082 230.2,187.5 282.8,473.6 124.9,776.2l0 0 0 0z"/>
 </g>
</svg>
